<?xml version="1.0" standalone="no"?>
<!DOCTYPE svg PUBLIC "-//W3C//DTD SVG 20010904//EN"
 "http://www.w3.org/TR/2001/REC-SVG-20010904/DTD/svg10.dtd">
<svg version="1.0" xmlns="http://www.w3.org/2000/svg"
 width="96.000000pt" height="96.000000pt" viewBox="0 0 96.000000 96.000000"
 preserveAspectRatio="xMidYMid meet">
<metadata>
Created by potrace 1.14, written by Peter Selinger 2001-2017
</metadata>
<g transform="translate(0.000000,96.000000) scale(0.100000,-0.100000)"
fill="#000000" stroke="none">
<path d="M145 903 c-16 -8 -41 -25 -53 -37 -49 -44 -52 -67 -51 -390 0 -272 2
-305 19 -346 10 -25 19 -40 20 -35 0 6 5 2 11 -8 11 -18 58 -46 92 -53 12 -3
101 -4 199 -4 135 1 177 -2 181 -12 4 -9 6 -9 6 2 1 12 15 14 81 10 50 -3 80
-1 80 5 0 6 8 1 17 -10 13 -16 15 -17 10 -3 -7 19 8 25 18 8 5 -8 11 -8 19 -1
7 6 17 7 21 3 5 -4 4 -1 0 7 -6 11 -4 13 8 8 9 -3 19 -1 23 5 5 7 2 8 -6 3 -9
-6 -11 -4 -6 4 5 7 14 10 22 7 7 -3 16 0 20 6 5 7 2 8 -7 4 -8 -4 0 5 16 19
17 15 23 24 15 20 -12 -5 -11 -4 1 7 16 13 19 19 19 39 0 5 5 7 12 3 7 -5 8
-3 3 7 -11 18 -14 69 -3 69 4 0 3 11 -2 25 -7 18 -6 25 3 25 8 0 8 3 -2 9 -11
7 -11 9 0 14 12 4 11 7 -1 16 -11 8 -11 11 -2 11 9 0 10 5 3 17 -7 13 -5 23 7
38 14 16 14 17 1 8 -13 -11 -15 -9 -15 10 1 12 6 25 11 29 7 5 6 8 -1 8 -11 0
-11 51 1 69 3 6 0 11 -7 11 -9 0 -9 3 2 10 11 7 11 10 2 10 -9 0 -10 5 -3 18
5 10 6 24 1 31 -4 8 -4 26 0 42 5 15 6 30 3 33 -3 3 -6 27 -6 53 0 27 -3 53
-7 58 -5 6 -10 19 -12 30 -4 26 -54 74 -95 91 -51 22 -626 19 -668 -3z"/>
</g>
</svg>
